<svg version="1.1" id="Layer_1" xmlns="http://www.w3.org/2000/svg" xmlns:xlink="http://www.w3.org/1999/xlink" x="0px" y="0px"
	 width="100%" viewBox="0 0 850 850" enable-background="new 0 0 850 850" xml:space="preserve">
<path fill="#000000" opacity="1.000000" stroke="none" 
	d="
M578.000000,851.000000 
	C385.333405,851.000000 193.166779,851.000000 1.000129,851.000000 
	C1.000086,567.666809 1.000086,284.333618 1.000043,1.000319 
	C284.333099,1.000213 567.666199,1.000213 850.999512,1.000106 
	C850.999634,284.333038 850.999634,567.666077 850.999817,850.999512 
	C760.166687,851.000000 669.333313,851.000000 578.000000,851.000000 
M469.928894,452.712921 
	C467.102173,445.165680 464.275482,437.618469 461.518921,430.258545 
	C450.939087,430.258545 440.670929,430.258545 430.279419,430.258545 
	C430.279419,503.889679 430.279419,577.261963 430.279419,650.676331 
	C441.283844,650.676331 452.005920,650.676331 463.089233,650.676331 
	C463.089233,607.846558 463.089233,565.338928 463.089233,522.831238 
	C463.348541,522.781555 463.607849,522.731873 463.867126,522.682190 
	C479.419128,565.386902 494.971100,608.091553 510.463348,650.632202 
	C520.687012,650.632202 530.754822,650.632202 540.611328,650.632202 
	C540.611328,576.891052 540.611328,503.518250 540.611328,430.256378 
	C529.949463,430.256378 519.678162,430.256378 509.098022,430.256378 
	C509.098022,473.751221 509.098022,516.991638 509.098022,560.231995 
	C508.848999,560.284058 508.600006,560.336060 508.350983,560.388123 
	C495.567535,524.763306 482.784058,489.138489 469.928894,452.712921 
M312.990234,445.514130 
	C304.540283,454.254669 300.128143,464.837341 300.074188,476.858459 
	C299.883575,519.339661 299.751221,561.824402 300.114807,604.303345 
	C300.274170,622.924866 310.026550,636.690735 325.725525,645.756714 
	C336.808289,652.157043 349.014496,654.531311 362.090820,652.133545 
	C373.542419,650.033752 383.854309,645.585266 391.776703,637.405273 
	C401.099030,627.779724 406.116486,615.895020 406.059113,602.022827 
	C405.892456,561.707214 406.024994,521.390381 405.957123,481.074188 
	C405.951080,477.484741 405.534637,473.866150 404.981323,470.312103 
	C400.887604,444.016205 379.746796,429.286591 354.849976,428.203186 
	C338.937469,427.510742 324.513428,432.612061 312.990234,445.514130 
M650.995117,310.494263 
	C645.699707,307.013428 640.737183,302.799591 635.036621,300.210999 
	C624.570129,295.458191 613.615356,291.793121 602.969849,287.417236 
	C597.085693,284.998535 591.036072,281.442139 590.303894,274.830627 
	C589.303955,265.801392 588.926331,256.329987 590.575317,247.475220 
	C592.630371,236.439774 599.932983,232.564835 609.354492,232.101944 
	C618.516235,231.651825 627.091492,236.655624 629.232727,246.766068 
	C630.541504,252.945648 630.985474,259.308380 631.830017,265.680695 
	C642.276001,265.680695 652.997375,265.680695 663.999634,265.680695 
	C663.999634,259.056549 664.445251,252.710556 663.909119,246.448608 
	C662.702454,232.353806 656.490112,220.844025 645.466309,211.731079 
	C634.041382,202.286484 620.984436,199.633530 606.541809,199.865509 
	C585.949280,200.196274 567.594299,213.720703 560.922974,232.981918 
	C555.705994,248.044266 555.320435,263.228485 557.867188,278.886200 
	C560.995728,298.121338 572.198547,309.977692 589.659424,317.050446 
	C600.038208,321.254547 610.386169,325.572540 620.523438,330.319092 
	C625.487549,332.643433 629.663330,336.374847 629.980591,342.523468 
	C630.440063,351.429474 630.813843,360.344849 630.964905,369.260620 
	C631.165283,381.092926 626.646851,389.836792 613.430969,391.713348 
	C603.443848,393.131470 591.944580,390.051666 589.044128,377.959839 
	C587.577881,371.847198 587.069702,365.504730 586.146973,359.389435 
	C575.913086,359.389435 565.522827,359.389435 554.532959,359.389435 
	C555.046448,368.047150 554.324951,376.584259 556.273865,384.460571 
	C560.422363,401.226227 570.876831,413.324493 587.102295,420.068237 
	C598.730286,424.901184 610.747559,425.082489 622.878723,422.971710 
	C640.772156,419.858337 653.172852,409.853546 658.931091,392.495453 
	C664.118530,376.858154 664.722778,360.820007 663.247009,344.390717 
	C662.136536,332.028351 659.828735,320.600494 650.995117,310.494263 
M567.000000,608.500000 
	C567.000000,622.589478 567.000000,636.678955 567.000000,650.615845 
	C599.071777,650.615845 630.459656,650.615845 661.746094,650.615845 
	C661.746094,639.957520 661.746094,629.684998 661.746094,618.909973 
	C641.105347,618.909973 620.711853,618.909973 600.343262,618.909973 
	C600.343262,597.345459 600.343262,576.290161 600.343262,554.730652 
	C618.410339,554.730652 636.138550,554.730652 653.741638,554.730652 
	C653.741638,544.281738 653.741638,534.342346 653.741638,523.900513 
	C635.762756,523.900513 618.034607,523.900513 600.348267,523.900513 
	C600.348267,502.668671 600.348267,481.946472 600.348267,460.721161 
	C621.086548,460.721161 641.480286,460.721161 661.737183,460.721161 
	C661.737183,450.272522 661.737183,440.332855 661.737183,430.305664 
	C630.086365,430.305664 598.699280,430.305664 567.000000,430.305664 
	C567.000000,489.573883 567.000000,548.536926 567.000000,608.500000 
M356.000000,263.500000 
	C356.000000,253.075470 356.000000,242.650955 356.000000,231.733963 
	C377.073578,231.733963 397.467285,231.733963 417.743469,231.733963 
	C417.743469,221.618622 417.743469,212.012360 417.743469,202.299377 
	C386.099121,202.299377 354.712097,202.299377 323.335022,202.299377 
	C323.335022,275.648224 323.335022,348.697174 323.335022,421.622131 
	C355.059204,421.622131 386.447021,421.622131 417.752380,421.622131 
	C417.752380,410.970001 417.752380,400.697510 417.752380,389.922516 
	C397.118103,389.922516 376.724548,389.922516 356.337006,389.922516 
	C356.337006,368.358154 356.337006,347.302826 356.337006,325.743286 
	C374.397552,325.743286 392.125366,325.743286 409.747925,325.743286 
	C409.747925,315.627625 409.747925,306.021545 409.747925,295.913147 
	C391.775604,295.913147 374.047455,295.913147 356.000000,295.913147 
	C356.000000,285.105713 356.000000,274.802856 356.000000,263.500000 
M192.998825,259.500000 
	C192.998825,313.580109 192.998825,367.660187 192.998825,421.687958 
	C203.987686,421.687958 214.385849,421.687958 225.216049,421.687958 
	C225.216049,393.314880 225.216049,365.252686 225.216049,337.471252 
	C233.738480,336.963104 241.801407,336.399689 249.872955,336.019104 
	C264.736267,335.318237 276.148499,328.536652 285.065704,316.827332 
	C293.253510,306.075775 295.676880,293.623535 295.895874,280.661865 
	C296.077362,269.918274 295.463409,259.153107 294.967957,248.408295 
	C294.375977,235.570419 289.474548,224.275726 280.539673,215.267319 
	C271.770325,206.425812 260.606506,202.089203 248.028580,202.017929 
	C233.533752,201.935776 219.038116,201.998840 204.542831,201.998840 
	C200.772507,201.998840 197.002167,201.998825 192.998825,201.998825 
	C192.998825,221.226547 192.998825,239.863266 192.998825,259.500000 
M235.500000,430.000000 
	C221.410782,430.000000 207.321579,430.000000 193.387054,430.000000 
	C193.387054,440.744873 193.387054,450.803741 193.387054,460.991425 
	C211.928558,460.991425 230.083603,460.991425 248.499313,460.991425 
	C248.176849,462.389374 248.022217,463.645691 247.599945,464.804474 
	C236.718124,494.665741 225.838898,524.528015 214.891571,554.365295 
	C208.803314,570.959045 203.155334,587.745911 196.274796,604.008179 
	C189.837158,619.223633 189.063782,634.734985 190.406189,650.636841 
	C222.031250,650.636841 253.418045,650.636841 284.767456,650.636841 
	C284.767456,640.333435 284.767456,630.395203 284.767456,620.037720 
	C264.781799,620.037720 245.022293,620.037720 225.041916,620.037720 
	C225.174423,618.796997 225.099152,617.939026 225.368225,617.207703 
	C236.902145,585.861267 248.492874,554.535828 260.017517,523.186035 
	C266.899872,504.464325 272.980713,485.408112 280.760742,467.070343 
	C285.943085,454.855255 284.583527,442.696747 285.006073,430.000000 
	C268.436249,430.000000 252.468124,430.000000 235.500000,430.000000 
M461.500000,202.000000 
	C453.740295,202.000000 445.980591,202.000000 438.389404,202.000000 
	C438.389404,212.415726 438.389404,222.141922 438.389404,232.185989 
	C450.718323,232.185989 462.659943,232.185989 475.094360,232.185989 
	C475.094360,295.568604 475.094360,358.621124 475.094360,421.655548 
	C485.990082,421.655548 496.380951,421.655548 507.265076,421.655548 
	C507.265076,358.259796 507.265076,295.207214 507.265076,231.826538 
	C519.705566,231.826538 531.647339,231.826538 543.700439,231.826538 
	C543.700439,221.768707 543.700439,212.045547 543.700439,202.000000 
	C516.434753,202.000000 489.467377,202.000000 461.500000,202.000000 
z"/>
<path fill="#28A8E0" opacity="1.000000" stroke="none" 
	d="
M469.964722,453.113281 
	C482.784058,489.138489 495.567535,524.763306 508.350983,560.388123 
	C508.600006,560.336060 508.848999,560.284058 509.098022,560.231995 
	C509.098022,516.991638 509.098022,473.751221 509.098022,430.256378 
	C519.678162,430.256378 529.949463,430.256378 540.611328,430.256378 
	C540.611328,503.518250 540.611328,576.891052 540.611328,650.632202 
	C530.754822,650.632202 520.687012,650.632202 510.463348,650.632202 
	C494.971100,608.091553 479.419128,565.386902 463.867126,522.682190 
	C463.607849,522.731873 463.348541,522.781555 463.089233,522.831238 
	C463.089233,565.338928 463.089233,607.846558 463.089233,650.676331 
	C452.005920,650.676331 441.283844,650.676331 430.279419,650.676331 
	C430.279419,577.261963 430.279419,503.889679 430.279419,430.258545 
	C440.670929,430.258545 450.939087,430.258545 461.518921,430.258545 
	C464.275482,437.618469 467.102173,445.165680 469.964722,453.113281 
z"/>
<path fill="#28A8E0" opacity="1.000000" stroke="none" 
	d="
M313.239624,445.261139 
	C324.513428,432.612061 338.937469,427.510742 354.849976,428.203186 
	C379.746796,429.286591 400.887604,444.016205 404.981323,470.312103 
	C405.534637,473.866150 405.951080,477.484741 405.957123,481.074188 
	C406.024994,521.390381 405.892456,561.707214 406.059113,602.022827 
	C406.116486,615.895020 401.099030,627.779724 391.776703,637.405273 
	C383.854309,645.585266 373.542419,650.033752 362.090820,652.133545 
	C349.014496,654.531311 336.808289,652.157043 325.725525,645.756714 
	C310.026550,636.690735 300.274170,622.924866 300.114807,604.303345 
	C299.751221,561.824402 299.883575,519.339661 300.074188,476.858459 
	C300.128143,464.837341 304.540283,454.254669 313.239624,445.261139 
M332.000000,526.500000 
	C332.000000,550.493652 331.795593,574.490540 332.177002,598.478149 
	C332.250946,603.129761 333.626068,608.383057 336.126587,612.240051 
	C340.867920,619.553467 351.147034,621.927185 359.979126,619.059143 
	C368.568390,616.269836 373.912140,609.440002 373.943542,599.995544 
	C374.075470,560.339722 374.355743,520.678528 373.824615,481.029419 
	C373.610748,465.061646 360.276062,458.138306 346.510742,461.873505 
	C336.015442,464.721375 332.324188,472.536926 332.092834,482.013702 
	C331.739136,496.501251 332.000000,511.003815 332.000000,526.500000 
z"/>
<path fill="#28A8E0" opacity="1.000000" stroke="none" 
	d="
M651.254333,310.752258 
	C659.828735,320.600494 662.136536,332.028351 663.247009,344.390717 
	C664.722778,360.820007 664.118530,376.858154 658.931091,392.495453 
	C653.172852,409.853546 640.772156,419.858337 622.878723,422.971710 
	C610.747559,425.082489 598.730286,424.901184 587.102295,420.068237 
	C570.876831,413.324493 560.422363,401.226227 556.273865,384.460571 
	C554.324951,376.584259 555.046448,368.047150 554.532959,359.389435 
	C565.522827,359.389435 575.913086,359.389435 586.146973,359.389435 
	C587.069702,365.504730 587.577881,371.847198 589.044128,377.959839 
	C591.944580,390.051666 603.443848,393.131470 613.430969,391.713348 
	C626.646851,389.836792 631.165283,381.092926 630.964905,369.260620 
	C630.813843,360.344849 630.440063,351.429474 629.980591,342.523468 
	C629.663330,336.374847 625.487549,332.643433 620.523438,330.319092 
	C610.386169,325.572540 600.038208,321.254547 589.659424,317.050446 
	C572.198547,309.977692 560.995728,298.121338 557.867188,278.886200 
	C555.320435,263.228485 555.705994,248.044266 560.922974,232.981918 
	C567.594299,213.720703 585.949280,200.196274 606.541809,199.865509 
	C620.984436,199.633530 634.041382,202.286484 645.466309,211.731079 
	C656.490112,220.844025 662.702454,232.353806 663.909119,246.448608 
	C664.445251,252.710556 663.999634,259.056549 663.999634,265.680695 
	C652.997375,265.680695 642.276001,265.680695 631.830017,265.680695 
	C630.985474,259.308380 630.541504,252.945648 629.232727,246.766068 
	C627.091492,236.655624 618.516235,231.651825 609.354492,232.101944 
	C599.932983,232.564835 592.630371,236.439774 590.575317,247.475220 
	C588.926331,256.329987 589.303955,265.801392 590.303894,274.830627 
	C591.036072,281.442139 597.085693,284.998535 602.969849,287.417236 
	C613.615356,291.793121 624.570129,295.458191 635.036621,300.210999 
	C640.737183,302.799591 645.699707,307.013428 651.254333,310.752258 
z"/>
<path fill="#28A8E0" opacity="1.000000" stroke="none" 
	d="
M567.000000,608.000000 
	C567.000000,548.536926 567.000000,489.573883 567.000000,430.305664 
	C598.699280,430.305664 630.086365,430.305664 661.737183,430.305664 
	C661.737183,440.332855 661.737183,450.272522 661.737183,460.721161 
	C641.480286,460.721161 621.086548,460.721161 600.348267,460.721161 
	C600.348267,481.946472 600.348267,502.668671 600.348267,523.900513 
	C618.034607,523.900513 635.762756,523.900513 653.741638,523.900513 
	C653.741638,534.342346 653.741638,544.281738 653.741638,554.730652 
	C636.138550,554.730652 618.410339,554.730652 600.343262,554.730652 
	C600.343262,576.290161 600.343262,597.345459 600.343262,618.909973 
	C620.711853,618.909973 641.105347,618.909973 661.746094,618.909973 
	C661.746094,629.684998 661.746094,639.957520 661.746094,650.615845 
	C630.459656,650.615845 599.071777,650.615845 567.000000,650.615845 
	C567.000000,636.678955 567.000000,622.589478 567.000000,608.000000 
z"/>
<path fill="#28A8E0" opacity="1.000000" stroke="none" 
	d="
M356.000000,264.000000 
	C356.000000,274.802856 356.000000,285.105713 356.000000,295.913147 
	C374.047455,295.913147 391.775604,295.913147 409.747925,295.913147 
	C409.747925,306.021545 409.747925,315.627625 409.747925,325.743286 
	C392.125366,325.743286 374.397552,325.743286 356.337006,325.743286 
	C356.337006,347.302826 356.337006,368.358154 356.337006,389.922516 
	C376.724548,389.922516 397.118103,389.922516 417.752380,389.922516 
	C417.752380,400.697510 417.752380,410.970001 417.752380,421.622131 
	C386.447021,421.622131 355.059204,421.622131 323.335022,421.622131 
	C323.335022,348.697174 323.335022,275.648224 323.335022,202.299377 
	C354.712097,202.299377 386.099121,202.299377 417.743469,202.299377 
	C417.743469,212.012360 417.743469,221.618622 417.743469,231.733963 
	C397.467285,231.733963 377.073578,231.733963 356.000000,231.733963 
	C356.000000,242.650955 356.000000,253.075470 356.000000,264.000000 
z"/>
<path fill="#FEF201" opacity="1.000000" stroke="none" 
	d="
M192.998825,259.000000 
	C192.998825,239.863266 192.998825,221.226547 192.998825,201.998825 
	C197.002167,201.998825 200.772507,201.998840 204.542831,201.998840 
	C219.038116,201.998840 233.533752,201.935776 248.028580,202.017929 
	C260.606506,202.089203 271.770325,206.425812 280.539673,215.267319 
	C289.474548,224.275726 294.375977,235.570419 294.967957,248.408295 
	C295.463409,259.153107 296.077362,269.918274 295.895874,280.661865 
	C295.676880,293.623535 293.253510,306.075775 285.065704,316.827332 
	C276.148499,328.536652 264.736267,335.318237 249.872955,336.019104 
	C241.801407,336.399689 233.738480,336.963104 225.216049,337.471252 
	C225.216049,365.252686 225.216049,393.314880 225.216049,421.687958 
	C214.385849,421.687958 203.987686,421.687958 192.998825,421.687958 
	C192.998825,367.660187 192.998825,313.580109 192.998825,259.000000 
M261.437317,277.082123 
	C259.268372,273.425873 256.892853,269.874023 254.979675,266.088531 
	C252.214783,260.617798 246.185547,257.322876 241.101227,259.399445 
	C236.217880,261.393921 231.919861,264.451508 230.836639,270.098938 
	C229.897812,274.993622 227.015045,277.816956 222.743393,280.042542 
	C215.623688,283.751953 214.395615,287.734009 217.352707,295.275665 
	C219.840225,301.619751 225.806122,305.292419 232.008987,303.031311 
	C239.912781,300.150146 247.259750,300.146515 255.196671,302.962738 
	C262.321075,305.490601 268.185638,302.005463 271.111969,294.881897 
	C273.980164,287.899841 272.509216,283.945282 265.425537,279.596893 
	C264.292114,278.901154 263.157074,278.208099 261.437317,277.082123 
M224.862686,241.370178 
	C225.262848,245.097229 225.006119,249.076324 226.304092,252.458862 
	C227.111206,254.562180 230.221771,256.946564 232.390442,257.038605 
	C234.610199,257.132812 238.155136,255.075104 238.961212,253.084946 
	C240.436813,249.441711 241.006668,245.099594 240.686951,241.151535 
	C240.344315,236.920349 237.988831,232.851151 233.044342,232.754990 
	C228.266449,232.662094 225.813690,236.057587 224.862686,241.370178 
M219.844711,252.683685 
	C213.728348,247.187592 209.834290,247.369339 207.378647,253.265518 
	C205.057114,258.839661 207.755966,267.735992 212.775818,271.056702 
	C217.642670,274.276184 224.140121,271.502075 223.944641,265.694031 
	C223.803574,261.502380 221.610611,257.379791 219.844711,252.683685 
M279.208923,251.539658 
	C276.878357,250.650757 274.306427,248.642990 272.262695,249.083847 
	C266.259064,250.378860 261.662323,259.991669 263.466095,266.139832 
	C265.313812,272.437805 270.390778,273.967590 275.553680,269.782043 
	C280.344421,265.898193 282.006226,258.819916 279.208923,251.539658 
M252.727951,257.163269 
	C254.841370,256.443542 257.478516,256.287292 258.971375,254.899872 
	C263.711090,250.494827 263.463043,238.917786 258.502960,234.869583 
	C256.850037,233.520538 253.346909,232.371109 251.903625,233.212646 
	C247.208511,235.950180 246.005188,241.000961 246.034454,246.169037 
	C246.060455,250.755646 246.584564,255.269989 252.727951,257.163269 
z"/>
<path fill="#28A8E0" opacity="1.000000" stroke="none" 
	d="
M236.000000,430.000000 
	C252.468124,430.000000 268.436249,430.000000 285.006073,430.000000 
	C284.583527,442.696747 285.943085,454.855255 280.760742,467.070343 
	C272.980713,485.408112 266.899872,504.464325 260.017517,523.186035 
	C248.492874,554.535828 236.902145,585.861267 225.368225,617.207703 
	C225.099152,617.939026 225.174423,618.796997 225.041916,620.037720 
	C245.022293,620.037720 264.781799,620.037720 284.767456,620.037720 
	C284.767456,630.395203 284.767456,640.333435 284.767456,650.636841 
	C253.418045,650.636841 222.031250,650.636841 190.406189,650.636841 
	C189.063782,634.734985 189.837158,619.223633 196.274796,604.008179 
	C203.155334,587.745911 208.803314,570.959045 214.891571,554.365295 
	C225.838898,524.528015 236.718124,494.665741 247.599945,464.804474 
	C248.022217,463.645691 248.176849,462.389374 248.499313,460.991425 
	C230.083603,460.991425 211.928558,460.991425 193.387054,460.991425 
	C193.387054,450.803741 193.387054,440.744873 193.387054,430.000000 
	C207.321579,430.000000 221.410782,430.000000 236.000000,430.000000 
z"/>
<path fill="#28A8E0" opacity="1.000000" stroke="none" 
	d="
M462.000000,202.000000 
	C489.467377,202.000000 516.434753,202.000000 543.700439,202.000000 
	C543.700439,212.045547 543.700439,221.768707 543.700439,231.826538 
	C531.647339,231.826538 519.705566,231.826538 507.265076,231.826538 
	C507.265076,295.207214 507.265076,358.259796 507.265076,421.655548 
	C496.380951,421.655548 485.990082,421.655548 475.094360,421.655548 
	C475.094360,358.621124 475.094360,295.568604 475.094360,232.185989 
	C462.659943,232.185989 450.718323,232.185989 438.389404,232.185989 
	C438.389404,222.141922 438.389404,212.415726 438.389404,202.000000 
	C445.980591,202.000000 453.740295,202.000000 462.000000,202.000000 
z"/>
<path fill="#000000" opacity="1.000000" stroke="none" 
	d="
M332.000000,526.000000 
	C332.000000,511.003815 331.739136,496.501251 332.092834,482.013702 
	C332.324188,472.536926 336.015442,464.721375 346.510742,461.873505 
	C360.276062,458.138306 373.610748,465.061646 373.824615,481.029419 
	C374.355743,520.678528 374.075470,560.339722 373.943542,599.995544 
	C373.912140,609.440002 368.568390,616.269836 359.979126,619.059143 
	C351.147034,621.927185 340.867920,619.553467 336.126587,612.240051 
	C333.626068,608.383057 332.250946,603.129761 332.177002,598.478149 
	C331.795593,574.490540 332.000000,550.493652 332.000000,526.000000 
z"/>
<path fill="#2AA9DE" opacity="1.000000" stroke="none" 
	d="
M261.730042,277.297974 
	C263.157074,278.208099 264.292114,278.901154 265.425537,279.596893 
	C272.509216,283.945282 273.980164,287.899841 271.111969,294.881897 
	C268.185638,302.005463 262.321075,305.490601 255.196671,302.962738 
	C247.259750,300.146515 239.912781,300.150146 232.008987,303.031311 
	C225.806122,305.292419 219.840225,301.619751 217.352707,295.275665 
	C214.395615,287.734009 215.623688,283.751953 222.743393,280.042542 
	C227.015045,277.816956 229.897812,274.993622 230.836639,270.098938 
	C231.919861,264.451508 236.217880,261.393921 241.101227,259.399445 
	C246.185547,257.322876 252.214783,260.617798 254.979675,266.088531 
	C256.892853,269.874023 259.268372,273.425873 261.730042,277.297974 
z"/>
<path fill="#2DAADB" opacity="1.000000" stroke="none" 
	d="
M224.919434,240.980331 
	C225.813690,236.057587 228.266449,232.662094 233.044342,232.754990 
	C237.988831,232.851151 240.344315,236.920349 240.686951,241.151535 
	C241.006668,245.099594 240.436813,249.441711 238.961212,253.084946 
	C238.155136,255.075104 234.610199,257.132812 232.390442,257.038605 
	C230.221771,256.946564 227.111206,254.562180 226.304092,252.458862 
	C225.006119,249.076324 225.262848,245.097229 224.919434,240.980331 
z"/>
<path fill="#2FAAD9" opacity="1.000000" stroke="none" 
	d="
M220.088760,252.955048 
	C221.610611,257.379791 223.803574,261.502380 223.944641,265.694031 
	C224.140121,271.502075 217.642670,274.276184 212.775818,271.056702 
	C207.755966,267.735992 205.057114,258.839661 207.378647,253.265518 
	C209.834290,247.369339 213.728348,247.187592 220.088760,252.955048 
z"/>
<path fill="#2CA9DC" opacity="1.000000" stroke="none" 
	d="
M279.451721,251.842041 
	C282.006226,258.819916 280.344421,265.898193 275.553680,269.782043 
	C270.390778,273.967590 265.313812,272.437805 263.466095,266.139832 
	C261.662323,259.991669 266.259064,250.378860 272.262695,249.083847 
	C274.306427,248.642990 276.878357,250.650757 279.451721,251.842041 
z"/>
<path fill="#2DAADB" opacity="1.000000" stroke="none" 
	d="
M252.325745,257.120819 
	C246.584564,255.269989 246.060455,250.755646 246.034454,246.169037 
	C246.005188,241.000961 247.208511,235.950180 251.903625,233.212646 
	C253.346909,232.371109 256.850037,233.520538 258.502960,234.869583 
	C263.463043,238.917786 263.711090,250.494827 258.971375,254.899872 
	C257.478516,256.287292 254.841370,256.443542 252.325745,257.120819 
z"/>
</svg>