<?xml version="1.0" encoding="UTF-8"?>
<svg xmlns="http://www.w3.org/2000/svg" version="1.1" xmlns:xlink="http://www.w3.org/1999/xlink" viewBox="0 0 210 50">
  <defs>
    <style>
      .cls-1 {
        fill: url(#Unbenannter_Verlauf_20);
      }

      .cls-2 {
        opacity: .5;
      }

      .cls-2, .cls-3, .cls-4, .cls-5, .cls-6, .cls-7, .cls-8 {
        mix-blend-mode: multiply;
      }

      .cls-2, .cls-9 {
        fill: #00bae1;
      }

      .cls-3 {
        fill: url(#Unbenannter_Verlauf_170);
      }

      .cls-10 {
        fill: url(#Unbenannter_Verlauf_7-2);
      }

      .cls-4 {
        fill: url(#Unbenannter_Verlauf_152);
      }

      .cls-11 {
        fill: url(#Unbenannter_Verlauf_166-2);
      }

      .cls-5 {
        fill: url(#Unbenannter_Verlauf_170-2);
      }

      .cls-12 {
        fill: #fff;
      }

      .cls-6 {
        fill: url(#Unbenannter_Verlauf_146);
      }

      .cls-13 {
        fill: url(#Unbenannter_Verlauf_20-5);
      }

      .cls-14 {
        fill: url(#Unbenannter_Verlauf_7);
      }

      .cls-15 {
        fill-rule: evenodd;
      }

      .cls-15, .cls-16 {
        fill: #ffec00;
      }

      .cls-7 {
        fill: url(#Unbenannter_Verlauf_20-2);
      }

      .cls-17 {
        fill: url(#Unbenannter_Verlauf_45-2);
      }

      .cls-17, .cls-18 {
        mix-blend-mode: overlay;
      }

      .cls-19 {
        fill: #00295a;
      }

      .cls-20 {
        isolation: isolate;
      }

      .cls-8 {
        fill: url(#Unbenannter_Verlauf_20-4);
      }

      .cls-21 {
        fill: url(#Unbenannter_Verlauf_20-3);
      }

      .cls-22 {
        fill: #0069b4;
      }

      .cls-23 {
        fill: url(#Unbenannter_Verlauf_166);
      }

      .cls-18 {
        fill: url(#Unbenannter_Verlauf_45);
      }
    </style>
    <radialGradient id="Unbenannter_Verlauf_7" data-name="Unbenannter Verlauf 7" cx="97.4" cy="3.5" fx="97.4" fy="3.5" r="7" gradientTransform="translate(-.4 -1.6) scale(1.1 1.1)" gradientUnits="userSpaceOnUse">
      <stop offset="0" stop-color="#e6010c"/>
      <stop offset="1" stop-color="#840f13"/>
    </radialGradient>
    <linearGradient id="Unbenannter_Verlauf_152" data-name="Unbenannter Verlauf 152" x1="102.8" y1="4.5" x2="106.9" y2="4.5" gradientUnits="userSpaceOnUse">
      <stop offset="0" stop-color="#bd070f" stop-opacity=".5"/>
      <stop offset="0" stop-color="#bc070f" stop-opacity=".5"/>
      <stop offset="1" stop-color="#840f13"/>
    </linearGradient>
    <linearGradient id="Unbenannter_Verlauf_146" data-name="Unbenannter Verlauf 146" x1="101.1" y1="5.8" x2="105" y2="5.8" gradientUnits="userSpaceOnUse">
      <stop offset="0" stop-color="#e6010c" stop-opacity="0"/>
      <stop offset=".7" stop-color="#a40a10" stop-opacity=".7"/>
      <stop offset="1" stop-color="#840f13"/>
    </linearGradient>
    <radialGradient id="Unbenannter_Verlauf_20" data-name="Unbenannter Verlauf 20" cx="95" cy="10.3" fx="95" fy="10.3" r="1.3" gradientTransform="translate(-.4 -1.6) scale(1.1 1.1)" gradientUnits="userSpaceOnUse">
      <stop offset="0" stop-color="#fff"/>
      <stop offset=".5" stop-color="#fdfcfc"/>
      <stop offset=".8" stop-color="#faf4f3"/>
      <stop offset="1" stop-color="#f7edec"/>
    </radialGradient>
    <radialGradient id="Unbenannter_Verlauf_20-2" data-name="Unbenannter Verlauf 20" cx="95" cy="10.9" fx="95" fy="10.9" r="1" xlink:href="#Unbenannter_Verlauf_20"/>
    <radialGradient id="Unbenannter_Verlauf_20-3" data-name="Unbenannter Verlauf 20" cx="99.9" cy="8.1" fx="99.9" fy="8.1" r="3.7" xlink:href="#Unbenannter_Verlauf_20"/>
    <radialGradient id="Unbenannter_Verlauf_20-4" data-name="Unbenannter Verlauf 20" cx="99.9" cy="9" fx="99.9" fy="9" r="3.4" xlink:href="#Unbenannter_Verlauf_20"/>
    <linearGradient id="Unbenannter_Verlauf_45" data-name="Unbenannter Verlauf 45" x1="103.5" y1="4.5" x2="110" y2="4.5" gradientUnits="userSpaceOnUse">
      <stop offset="0" stop-color="#fff"/>
      <stop offset=".2" stop-color="#fefefe" stop-opacity="1"/>
      <stop offset=".3" stop-color="#fefefe" stop-opacity=".9"/>
      <stop offset=".4" stop-color="#fefcfc" stop-opacity=".9"/>
      <stop offset=".5" stop-color="#fdfbfb" stop-opacity=".8"/>
      <stop offset=".6" stop-color="#fcf9f8" stop-opacity=".7"/>
      <stop offset=".7" stop-color="#fbf6f6" stop-opacity=".5"/>
      <stop offset=".8" stop-color="#f9f3f2" stop-opacity=".4"/>
      <stop offset=".9" stop-color="#f8f0ef" stop-opacity=".2"/>
      <stop offset="1" stop-color="#f7edec" stop-opacity="0"/>
    </linearGradient>
    <linearGradient id="Unbenannter_Verlauf_45-2" data-name="Unbenannter Verlauf 45" x1="99.6" y1="4.1" x2="101" y2="4.7" xlink:href="#Unbenannter_Verlauf_45"/>
    <radialGradient id="Unbenannter_Verlauf_7-2" data-name="Unbenannter Verlauf 7" cx="10.7" cy="2.3" fx="10.7" fy="2.3" r="8.3" gradientTransform="matrix(1,0,0,1,0,0)" xlink:href="#Unbenannter_Verlauf_7"/>
    <linearGradient id="Unbenannter_Verlauf_170" data-name="Unbenannter Verlauf 170" x1="8.9" y1="7" x2="16" y2="7" gradientUnits="userSpaceOnUse">
      <stop offset="0" stop-color="#e6010c" stop-opacity="0"/>
      <stop offset="0" stop-color="#db020c" stop-opacity=".2"/>
      <stop offset=".1" stop-color="#c0060e" stop-opacity=".4"/>
      <stop offset=".2" stop-color="#aa0910" stop-opacity=".6"/>
      <stop offset=".4" stop-color="#990b11" stop-opacity=".8"/>
      <stop offset=".5" stop-color="#8d0d12" stop-opacity=".9"/>
      <stop offset=".7" stop-color="#860e12" stop-opacity="1"/>
      <stop offset="1" stop-color="#840f13"/>
    </linearGradient>
    <linearGradient id="Unbenannter_Verlauf_170-2" data-name="Unbenannter Verlauf 170" x1="6.3" y1="7.3" x2="9" y2="7.3" xlink:href="#Unbenannter_Verlauf_170"/>
    <radialGradient id="Unbenannter_Verlauf_20-5" data-name="Unbenannter Verlauf 20" cx="17" cy="4.4" fx="17" fy="4.4" r="5.8" gradientTransform="matrix(1,0,0,1,0,0)" xlink:href="#Unbenannter_Verlauf_20"/>
    <radialGradient id="Unbenannter_Verlauf_166" data-name="Unbenannter Verlauf 166" cx="8.7" cy="13.9" fx="8.7" fy="13.9" r="2.3" gradientUnits="userSpaceOnUse">
      <stop offset="0" stop-color="#fff"/>
      <stop offset=".3" stop-color="#f2eee9"/>
      <stop offset=".7" stop-color="#eae2da"/>
      <stop offset="1" stop-color="#e8dfd6"/>
    </radialGradient>
    <radialGradient id="Unbenannter_Verlauf_166-2" data-name="Unbenannter Verlauf 166" cx="17" cy="6.1" fx="17" fy="6.1" r="4.8" xlink:href="#Unbenannter_Verlauf_166"/>
  </defs>
  <g class="cls-20">
    <g id="Layer_1">
      <g>
        <g>
          <path class="cls-16" d="M11.5,41.7V7.6h7.3c1.3,0,2.5.2,3.5.5,1,.4,2,1,2.8,1.9.8.9,1.4,2,1.7,3.1.4,1.2.4,2.8.4,4.9s0,2.8-.3,3.9c-.2,1.1-.5,2.1-1.2,3-.6,1.1-1.5,2-2.7,2.6-1.1.6-2.6.9-4.4.9h-2.3v13.3h-4.9ZM16.3,12.2v11.6h2.3c1,0,1.8-.2,2.3-.4s.9-.7,1.2-1.2.4-1.1.4-1.8c0-.7,0-1.4,0-2.3s0-1.5,0-2.2c0-.7-.2-1.3-.4-1.9s-.6-1-1.2-1.3c-.5-.3-1.3-.4-2.2-.4,0,0-2.5,0-2.5,0Z"/>
          <path class="cls-16" d="M31.6,41.7V7.6h14.6v4.6h-9.6v10.1h8.5v4.6h-8.5v10h9.7v4.9s-14.7,0-14.7,0Z"/>
          <path class="cls-16" d="M55.1,41.7V12.2h-5.7v-4.6h16.2v4.6h-5.6v29.5h-4.9Z"/>
          <path class="cls-16" d="M84.3,17.8h-4.9v-1.1c0-1.1-.3-2.1-.8-2.9s-1.4-1.3-2.7-1.3-1.2,0-1.6.4c-.4.3-.7.5-1,1-.3.4-.4.9-.5,1.4s-.2,1-.2,1.6,0,1.3,0,1.7.2.8.4,1.2c.2.4.4.6.8.9s.9.5,1.5.8l3.8,1.4c1.1.4,2,.9,2.6,1.4.6.5,1.2,1.2,1.6,2,.4.8.6,1.6.7,2.6,0,1,.2,2.1.2,3.3s-.2,2.8-.4,4c-.3,1.3-.7,2.2-1.3,3.1s-1.5,1.6-2.6,2.1c-1.1.5-2.4.8-4,.8s-2.2-.2-3.3-.6c-1-.4-1.9-1-2.6-1.7-.7-.7-1.3-1.6-1.7-2.5-.4-1-.6-2.1-.6-3.1v-1.8h4.9v1.4c0,.9.3,1.7.8,2.4s1.4,1.1,2.7,1.1,1.4,0,2-.4.8-.5,1.1-1c.3-.4.4-1,.4-1.6,0-.6,0-1.3,0-2.1s0-1.6,0-2.2-.2-1.1-.4-1.3c-.2-.4-.5-.6-.9-.9-.4-.2-.8-.4-1.4-.7l-3.5-1.4c-2.1-.9-3.5-2-4.2-3.4-.7-1.4-1.1-3.2-1.1-5.3s.2-2.5.5-3.6c.4-1.2.9-2.2,1.6-3,.6-.8,1.5-1.5,2.5-2,1.1-.4,2.2-.7,3.7-.7s2.3.2,3.3.6,1.9,1.1,2.6,1.8c1.4,1.5,2.2,3.3,2.2,5.3v2.2h-.2Z"/>
        </g>
        <g>
          <path class="cls-16" d="M125.5,41.7v-4.3l9.2-25.2h-8.7v-4.6h14.1v3.9l-9.4,25.6h9.4v4.6h-14.6Z"/>
          <path class="cls-16" d="M142.5,16c0-1.3.3-2.6.7-3.6.4-1.1,1.1-1.9,1.9-2.6.8-.6,1.6-1.2,2.6-1.5,1-.4,2-.5,3-.5s2,.2,3,.5,1.9.9,2.7,1.5c.8.7,1.3,1.6,1.9,2.6.4,1.1.7,2.2.7,3.6v18c0,1.4-.3,2.7-.7,3.7s-1.1,1.9-1.9,2.5c-.8.7-1.7,1.3-2.7,1.6-1,.4-2,.5-3,.5s-2-.2-3-.5c-1-.4-1.8-.9-2.6-1.6-.8-.6-1.4-1.5-1.9-2.5s-.7-2.2-.7-3.7v-18ZM147.4,34c0,1.2.4,2.1,1,2.6.6.5,1.4.8,2.3.8s1.7-.3,2.3-.8c.6-.5,1-1.4,1-2.6v-18c0-1.2-.4-2.1-1-2.6-.6-.5-1.4-.8-2.3-.8s-1.7.3-2.3.8c-.6.5-1,1.4-1,2.6v18Z"/>
          <path class="cls-16" d="M162.7,41.7V7.6h4.7l7.4,20.5h0V7.6h4.9v34.1h-4.6l-7.5-20.5h0v20.5s-4.9,0-4.9,0Z"/>
          <path class="cls-16" d="M184,41.7V7.6h14.6v4.6h-9.7v10.1h8.5v4.6h-8.5v10h9.7v4.9s-14.6,0-14.6,0Z"/>
        </g>
        <circle class="cls-22" cx="105.9" cy="25" r="17.4"/>
        <g>
          <path class="cls-15" d="M101.2,11.3c4.6,0,4.7,8.4,1.2,9.4-3.9,1.1-4.5-5.4-3.1-7.7.4-.7,1.2-1.1,2-1.6Z"/>
          <path class="cls-15" d="M109.2,11.3c4.7,0,4.8,8.5,1.2,9.4-4.4,1.2-4.8-7.1-1.2-9.4Z"/>
          <path class="cls-15" d="M93.5,17.5c4,0,6.8,7.1,3.2,8.7-3.5,2.1-7.6-6.1-3.2-8.7Z"/>
          <path class="cls-15" d="M117,17.5c5.6-.2,3.1,10.3-2.3,8.7-2.9-3.6-.6-6.9,2.3-8.7Z"/>
          <path class="cls-15" d="M105.2,21.5c5.3,0,4.5,3.1,6.4,5.9,1.5,2.3,6.6,2.3,4.9,7.4-.5,1.4-1.3,2.6-2.6,3.2-2.4,1.3-4.8-.3-6.9-.7-3.6-.8-5.8,2.5-9.1.5-1.3-.8-2.1-2-2.4-3.6-1.2-4.8,3.2-4.2,4.9-6.7.3-.8.4-1.6.7-2.4.8-2,2.1-2.6,4-3.7Z"/>
        </g>
      </g>
      <g>
        <path class="cls-14" d="M110.6,4.9c-.9-1.9-1.9-3.3-3.9-3.4-2,0-3.3,1-3.8,1.1-.5,0-1.7.1-2.4.9s.6,6.3.6,6.3h.6s.8-2,1-2.5c.2-.6.4-.5,1.4-.4,1,0,6.5-2.1,6.5-2.1Z"/>
        <path class="cls-4" d="M106.9,2.5c0-.9-1.4-.4-1.9.3-.6.8-1.6,2.7-2.2,4.2,0,0,.2-.1.3-.1.1-.5.4-1.1,1-1.6.9-.8,2.9-1.9,2.8-2.8Z"/>
        <path class="cls-6" d="M101.3,9.9c1.3-3.6,2.4-6.6,3.7-8.1-1,.3-1.6.7-2,.8,0,0,0,0,0,0-1.7,1.8-1.9,5.7-1.9,7.2h.2Z"/>
        <g>
          <path class="cls-1" d="M102.8,9.3c0,.1.4.7.1,1.3-.3.6-1,.9-1.7.7-.5-.2-.9-.7-.9-1.2,0-.7.5-1.5,1.2-1.5.8,0,1.3.8,1.3.8Z"/>
          <path class="cls-7" d="M102.9,10.3c-.3.6-1,.9-1.7.7-.5-.2-.9-.7-.9-1.2,0,0,0,.2,0,.2,0,.5.4,1.1.9,1.2.6.2,1.4,0,1.7-.7,0-.2.1-.4,0-.6,0,.1,0,.2,0,.3Z"/>
          <path class="cls-12" d="M100.3,10.1c0-.6.6-1.2,1.2-1.3.8,0,1.3.8,1.3.8,0,0,.2.3.2.6,0-.4-.2-.8-.2-.9,0,0-.5-.9-1.3-.8-.7,0-1.2.8-1.2,1.5,0,0,0,0,0,0Z"/>
        </g>
        <g>
          <path class="cls-21" d="M109.5,4.9c1.2-.5,1.6-.4,1.8.3.2.7.7,1.2.5,1.8-.1.7.3.7-2.6,1.6-2.9,1-4.1,1.5-5.2,1.5s-1.8-.4-1.8-1c0-.5-.4-1.3.2-1.9.5-.7,1.3-.6,2.4-.7,1.1,0,3.7-1.3,4.7-1.7Z"/>
          <path class="cls-8" d="M111.9,6.7c-.1.7.3.7-2.6,1.6-2.9,1-4.1,1.5-5.2,1.5s-1.8-.4-1.8-1c0-.3,0-.5-.1-.9,0,.5.1.9.1,1.2,0,.5.6,1,1.8,1s2.3-.5,5.2-1.5c2.9-1,2.5-1,2.6-1.6,0-.1,0-.3,0-.4,0,0,0,0,0,0Z"/>
          <path class="cls-12" d="M102.4,7.6c.5-.7,1.3-.6,2.4-.7,1.1,0,3.7-1.3,4.7-1.7,1.2-.5,1.6-.4,1.8.3.1.6.5,1,.5,1.4,0-.6-.4-1-.5-1.7-.2-.7-.6-.8-1.8-.3-1,.4-3.6,1.6-4.7,1.7-1.1,0-1.9,0-2.4.7-.3.3-.3.7-.3,1,0-.3,0-.5.3-.7Z"/>
        </g>
        <path class="cls-18" d="M103.5,7.4c0-1.3,0-1.6,1.7-2.8,1.7-1.1,1.9-1.5,1.9-2.1,0-.5-.6-.8-1.2-.5-.5.3-.9.7-1.3,1.2-.4.5-.2,0,.3-.8.5-.8,1.7-1,2.6-.7.8.2,1.2.6,2.3,2.1,1.1,1.5-1.9,3.4-3.6,3.3s-2.7.2-2.7.2Z"/>
        <path class="cls-17" d="M100.5,6.2c-.2-1.6-.2-1.9,0-2.4.3-.5,1.4-.9,1.2-.6-.3.3-.8,1.5-1,2.6-.2,1-.2.7-.3.4Z"/>
      </g>
      <g>
        <g>
          <path class="cls-10" d="M18.9,3.6c-1.5,0-2-1.1-2.6-1.8-.5-.7-2.4-1.8-4.7-.7-2.2,1.1-2.4,2.1-2.9,2.4-.5.3-2.5,1.3-3,2.3-.5,1-.6,1.7.4,3.2,1,1.5,1.3,4.1,1.3,4.1l1.9-.4s0-3.4,0-4.6c0-1.2.5-1.5.5-1.5,0,0,1.9-.9,3.9-1.6,2-.8,4.9-1.5,4.9-1.5Z"/>
          <path class="cls-3" d="M9.5,8.3c0-1.2.5-1.5.5-1.5.2-.9-.7-1.5.3-2.3,1-.8.5-2.1,1.5-2.2.9-.1,1.5-.8,2.2-.7.7,0,1.4,0,1.7.3.4.3.1-.5-1.5-.7-1.6-.2-1.9,0-2.7.7-.8.7-1.5,1.6-2,2.5-.5,1-.7.3-.7,2s.2,4.8.4,6.5h.2s0-3.5,0-4.7Z"/>
          <path class="cls-5" d="M9,3.5c0,0-.1.1-.2.2-.4.2-1.4.8-2.2,1.4-.7,2,.1,4.3.6,5.6.6,1.7-.2-1.8-.1-3.7,0-1.9,1-2.4,1.9-3.5Z"/>
          <path class="cls-13" d="M19.9,7c.5-.3.9-.5.4-1.7s-.6-2.6-2.9-1.9c-2.3.8-7.2,2.8-7.7,3.2-.5.4-.4,3.3-.4,4.3,0,1-.4,1.7,1,.9,1.4-.7,9.1-4.6,9.6-4.9Z"/>
          <path class="cls-23" d="M8.3,12.3c.9-.3,1.4-.4,1.7-.3.7.2,1.3,1.2,1.2,2.1-.2,1.1-1.4,1.5-1.8,1.6,0,0-2,.6-2.9-.5-.5-.6-.4-1.6,0-2.2.2-.3.7-.4,1.8-.7Z"/>
        </g>
        <path class="cls-11" d="M20.3,5.3s0,0,0-.1c-.4,1-1.5,1.9-3.2,2.6-2.7,1-7,4.2-6.5,2.9.3-.9-.5-1.5-1.1-2.8-.1,1,0,2.5-.1,3.1,0,1-.4,1.7,1,.9,1.4-.7,9.1-4.6,9.6-4.9.5-.3.9-.5.4-1.7Z"/>
      </g>
      <g>
        <path class="cls-9" d="M151.4,25.7c.6.2,1,0,1.6-.2-.8-.4-1.3-1-1.6-1.8.4.2.8.1,1.3,0-.8-.5-1.5-1.2-1.9-2.1-.4.8-1.1,1.6-1.9,2.1.5.2.8.2,1.3,0-.3.8-.8,1.4-1.6,1.8.6.3,1,.5,1.6.2-.4.9-1,1.6-2,1.9.8.5,1.8.6,2.7.4.9.3,1.9.1,2.7-.4-1-.3-1.6-.9-2-1.9Z"/>
        <path class="cls-12" d="M152,27.3l-1.2-.6v-2.2c0,0,.3.4.3.4,0,0,0,0,0,0l.4.4s0,0,0,0,0,0,0,0c0,0,0,0,0,0l-.4-.4h.4s0,0,0,0c0,0,0,0,0,0h-.5s-.4-.4-.4-.4v-1.4s.6.3.6.3c0,0,0,0,0,0,0,0,0,0,0,0,0,0,0,0,0,0h-.2c0-.1.4-.3.4-.3,0,0,0,0,0,0,0,0,0,0,0,0l-.4.2-.4-.2v-.7s0,.7,0,.7l-.7.2s0,0,0,0c0,0,0,0,0,0s0,0,0,0h.3c0,0-.2.2-.2.2,0,0,0,0,0,0,0,0,0,0,0,0,0,0,0,0,0,0l.2-.3h.3c0,0,0,1.3,0,1.3l-.6.4s0,0,0,0l-.6.4s0,0,0,0c0,0,0,0,0,0s0,0,0,0l.5-.4v.4c0,0,0,0,0,0,0,0,0,0,0,0,0,0,0,0,0,0v-.5c0,0,.6-.4.6-.4v2.2c0,0-.6.3-.6.3l-.3-.3s0,0,0,0c0,0,0,0,0,0l.3.3-.5.2s0,0,0,0c0,0,0,0,0,0s0,0,0,0l1.1-.5v1.9s.3,0,.3,0v-1.9s.5.3.5.3v.6c.1,0,.1,0,.2,0s0,0,0,0c0,0,0,0,0,0v-.5c-.1,0,.4.2.4.2,0,0,0,0,0,0,0,0,0,0,0,0,0,0,0,0,0,0Z"/>
      </g>
      <g>
        <path class="cls-22" d="M205.8,4.5c-.3,0-.5.2-.5.5s.2.5.5.5.5-.2.5-.5-.2-.5-.5-.5ZM205.8,5.2c-.2,0-.3-.1-.3-.3s.1-.3.3-.3.3.1.3.3-.1.3-.3.3Z"/>
        <path class="cls-22" d="M208.7,5.6s0,0,0,.1l.5,1-.6-.4-.6-1.3s0,0-.1,0c0,0,0,0,0,.1l.5,1-.3-.2-1-1.1,1-1.1.3-.2-.5,1s0,.1,0,.1c0,0,0,0,0,0,0,0,0,0,0,0l.6-1.3.6-.4-.5,1s0,.1,0,.1c0,0,0,0,0,0,0,0,0,0,0,0l.6-1.4-1.6-.2c0,0-.1,0-.1,0,0,0,0,.1,0,.1h1.1c0,.1-.6.5-.6.5h-1.4c0-.2-.1-.1-.1,0,0,0,0,.1,0,.1h1.1c0,.1-.3.3-.3.3l-1.4.3-.5-1.4v-.4l.7.9s0,0,0,0,0,0,0,0c0,0,0,0,0-.1l-.8-1.1v-.7l.7.9s0,0,0,0,0,0,0,0c0,0,0,0,0-.1l-.9-1.3-.9,1.3s0,.1,0,.1c0,0,.1,0,.1,0l.7-.9v.7l-.8,1.1s0,.1,0,.1c0,0,.1,0,.1,0l.7-.9v.4l-.5,1.4-1.4-.3-.3-.2h1.1c0-.1,0-.2,0-.2,0,0,0,0-.1,0h-1.4c0,.1-.6-.2-.6-.2h1.1c0-.1,0-.2,0-.2,0,0,0,0-.1,0l-1.6.2.6,1.4s0,0,0,0,0,0,0,0c0,0,0,0,0-.1l-.5-1,.6.4.6,1.3s0,0,0,0,0,0,0,0c0,0,0,0,0-.1l-.5-1,.3.2,1,1.1-1,1.1-.3.2.5-1s0-.1,0-.1c0,0-.1,0-.1,0l-.6,1.3-.6.4.5-1s0-.1,0-.1c0,0-.1,0-.1,0l-.6,1.4,1.6.2s0,0,0,0c0,0,0,0,0,0,0,0,0-.1,0-.1h-1.1c0-.1.6-.5.6-.5h1.4c0,.1,0,.1,0,.1,0,0,0,0,0,0,0,0,0-.1,0-.1h-1.1c0-.1.3-.3.3-.3l1.4-.3.5,1.4v.4l-.7-.9s0,0-.1,0c0,0,0,0,0,.1l.8,1.1v.7l-.7-.9s0,0-.1,0c0,0,0,0,0,.1l.9,1.3.9-1.3s0-.1,0-.1c0,0-.1,0-.1,0l-.7.9v-.7l.8-1.1s0-.1,0-.1c0,0-.1,0-.1,0l-.7.9v-.4l.5-1.4,1.4.3.3.2h-1.1c0,.1,0,.2,0,.2,0,0,0,0,0,0s0,0,0,0h1.4c0-.1.6.2.6.2h-1.1c0,.1,0,.2,0,.2,0,0,0,0,0,0s0,0,0,0l1.6-.2-.6-1.4s0,0-.1,0ZM207.6,3.9s0,0,0,0c0,0,0,0,0,0l-.8.9-.2-.2s0,0,0,0c0,0,0-.2-.1-.2,0,0,0,0,0,0v-.2c0,0,1.1-.2,1.1-.2ZM205.8,2.9s0,0,0,0,0,0,0,0l.4,1.1h-.2s0,0,0,0c0,0,0,0-.1,0s0,0-.1,0c0,0,0,0,0,0h-.2s.4-1.1.4-1.1ZM204,3.9s0,0,0,0c0,0,0,0,0,0l1.2.2v.2c0,0,0,0,0,0,0,0-.1.1-.1.2,0,0,0,0,0,0l-.2.2-.8-.9ZM204,6s0,0,0,0c0,0,0,0,0,0l.8-.9.2.2s0,0,0,0c0,0,0,.2.1.2,0,0,0,0,0,0v.2c0,0-1.1.2-1.1.2ZM205.8,7s0,0,0,0,0,0,0,0l-.4-1.1h.2s0,0,0,0c0,0,0,0,.1,0s0,0,.1,0c0,0,0,0,0,0h.2s-.4,1.1-.4,1.1ZM205.8,5.7c-.4,0-.7-.3-.7-.7s.3-.7.7-.7.7.3.7.7-.3.7-.7.7ZM207.6,6s0,0,0,0l-1.2-.2v-.2c0,0,0,0,0,0,0,0,.1-.1.1-.2,0,0,0,0,0,0l.2-.2.8.9s0,0,0,0Z"/>
      </g>
      <path class="cls-19" d="M5.9,45.7c-.4,0-.8-.2-1.2-.3-.2,0-.3,0-.5,0,.4-.3.7-.6,1.1-1,.5-.3,1-.8,1.2-1.3.3-.6.4-1.3.3-1.9-.2.7-.2,1-.7,1.5-.2.2-.4.4-.6.7-.1.2-.5.8-.5,1.1-.5.5-1,.8-1.5,1.2l-.3.3c-.1,0-.2.2-.3.2,0-.3.2-.6.4-.9.6-.9.7-2,.2-3,0,.5,0,.9-.2,1.4-.2.4-.4.8-.6,1.3-.1.4-.1.9,0,1.2-.6.4-1.1.8-1.6,1.3.1-.9.3-1.7.5-2.6.1-.9.2-2-.3-2.8.3.6.2,1.3,0,1.9-.2.6-.5,1.2-.6,1.9-.1.6,0,1.3.3,1.7-.1.1-.2.3-.3.4-.4.6-.8,1.2-.9,1.8,0,0,.1,0,.2,0,.2-.6.4-1.1.9-1.7.2-.3.5-.5.7-.8,0,.4.4.8.7.9.4.2.8.2,1.2,0,.4-.1.8-.3,1.2-.5.4-.2.7-.3,1.1-.3-.3-.2-.8-.2-1.2-.1-.4,0-.8.2-1.2.3-.6,0-1.3,0-1.8-.5.5-.4,1-.8,1.6-1.2l.3-.3s0,0,0,0c.5,0,1.1.1,1.6.1.6,0,1.2,0,1.7-.3-.4.2-.8.2-1.2,0Z"/>
      <g>
        <path class="cls-9" d="M206.7,46.3c-.4,1.2-1.7,1.8-2.9,1.3-1.2-.4-1.8-1.7-1.3-2.9s1.7-1.8,2.9-1.3c1.2.4,1.8,1.7,1.3,2.9Z"/>
        <path class="cls-2" d="M206.3,44.1c.2.5.2,1,0,1.5-.4,1.2-1.7,1.8-2.9,1.3-.4-.1-.7-.4-1-.7.2.6.7,1.1,1.4,1.4,1.2.4,2.5-.2,2.9-1.3.3-.8.1-1.6-.4-2.2Z"/>
        <path class="cls-12" d="M204.8,44.9c-.2.4-.7.7-1.1.5-.4-.2-.7-.7-.5-1.1.2-.4.7-.7,1.1-.5.4.2.7.7.5,1.1Z"/>
      </g>
      <g>
        <path class="cls-9" d="M61.1,1.9c-.2.4-.6.6-1,.5-.4-.2-.6-.6-.5-1s.6-.6,1-.5c.4.2.6.6.5,1Z"/>
        <path class="cls-2" d="M61,1.1c0,.2,0,.4,0,.5-.2.4-.6.6-1,.5-.1,0-.3-.1-.3-.2,0,.2.2.4.5.5.4.2.9,0,1-.5.1-.3,0-.6-.1-.8Z"/>
        <path class="cls-12" d="M60.4,1.4c0,.2-.2.2-.4.2-.2,0-.2-.2-.2-.4,0-.2.2-.2.4-.2.2,0,.2.2.2.4Z"/>
      </g>
      <g>
        <path class="cls-9" d="M2.7,25.4c-.2.4-.6.6-1,.5-.4-.2-.6-.6-.5-1s.6-.6,1-.5c.4.2.6.6.5,1Z"/>
        <path class="cls-2" d="M2.5,24.6c0,.2,0,.4,0,.5-.2.4-.6.6-1,.5-.1,0-.3-.1-.3-.2,0,.2.2.4.5.5.4.2.9,0,1-.5.1-.3,0-.6-.1-.8Z"/>
        <path class="cls-12" d="M2,24.9c0,.2-.2.2-.4.2-.2,0-.2-.2-.2-.4,0-.2.2-.2.4-.2.2,0,.2.2.2.4Z"/>
      </g>
    </g>
  </g>
</svg>
